{
    "asset" : {
        "generator" : "Khronos glTF Blender I/O v3.2.43",
        "version" : "2.0"
    },
    "scene" : 0,
    "scenes" : [
        {
            "name" : "Scene",
            "nodes" : [
                0
            ]
        }
    ],
    "nodes" : [
        {
            "mesh" : 0,
            "name" : "rock_moss_set_01_rock02",
            "translation" : [
                0,
                0,
                -2.122781276702881
            ]
        }
    ],
    "materials" : [
        {
            "doubleSided" : true,
            "name" : "rock_moss_set_01",
            "normalTexture" : {
                "index" : 0
            },
            "pbrMetallicRoughness" : {
                "baseColorTexture" : {
                    "index" : 1
                },
                "metallicFactor" : 0,
                "metallicRoughnessTexture" : {
                    "index" : 2
                }
            }
        }
    ],
    "meshes" : [
        {
            "name" : "modelShape.002",
            "primitives" : [
                {
                    "attributes" : {
                        "POSITION" : 0,
                        "NORMAL" : 1,
                        "TEXCOORD_0" : 2
                    },
                    "indices" : 3,
                    "material" : 0
                }
            ]
        }
    ],
    "textures" : [
        {
            "sampler" : 0,
            "source" : 0
        },
        {
            "sampler" : 0,
            "source" : 1
        },
        {
            "sampler" : 0,
            "source" : 2
        }
    ],
    "images" : [
        {
            "mimeType" : "image/png",
            "name" : "rock_moss_set_01_nor_gl",
            "uri" : "Textures/rock_moss_set_01_nor_gl.png"
        },
        {
            "mimeType" : "image/jpeg",
            "name" : "rock_moss_set_01_diff",
            "uri" : "Textures/rock_moss_set_01_diff.jpg"
        },
        {
            "mimeType" : "image/png",
            "name" : "rock_moss_set_01_rough",
            "uri" : "Textures/rock_moss_set_01_rough.png"
        }
    ],
    "accessors" : [
        {
            "bufferView" : 0,
            "componentType" : 5126,
            "count" : 6192,
            "max" : [
                1.3823258876800537,
                0.7963716983795166,
                1.619305968284607
            ],
            "min" : [
                -1.2730549573898315,
                -0.4656194746494293,
                -1.6444144248962402
            ],
            "type" : "VEC3"
        },
        {
            "bufferView" : 1,
            "componentType" : 5126,
            "count" : 6192,
            "type" : "VEC3"
        },
        {
            "bufferView" : 2,
            "componentType" : 5126,
            "count" : 6192,
            "type" : "VEC2"
        },
        {
            "bufferView" : 3,
            "componentType" : 5123,
            "count" : 32988,
            "type" : "SCALAR"
        }
    ],
    "bufferViews" : [
        {
            "buffer" : 0,
            "byteLength" : 74304,
            "byteOffset" : 0
        },
        {
            "buffer" : 0,
            "byteLength" : 74304,
            "byteOffset" : 74304
        },
        {
            "buffer" : 0,
            "byteLength" : 49536,
            "byteOffset" : 148608
        },
        {
            "buffer" : 0,
            "byteLength" : 65976,
            "byteOffset" : 198144
        }
    ],
    "samplers" : [
        {
            "magFilter" : 9729,
            "minFilter" : 9987
        }
    ],
    "buffers" : [
        {
            "byteLength" : 264120,
            "uri" : "rock_moss_set_01_5k.bin"
        }
    ]
}
